<?xml version="1.0" encoding="UTF-8"?>
<svg viewBox="45 48 377 594" width="377" height="594" xmlns="http://www.w3.org/2000/svg">
  <rect x="45" y="48" width="377" height="594" fill="#d4e8ca"/>

  <!-- VELD 1 -->
  <rect x="73" y="58" width="134" height="207" rx="4" fill="#2e7d32" stroke="#fff" stroke-width="2.5"/>
  <rect x="81" y="66" width="118" height="191" fill="none" stroke="white" stroke-width="1" opacity="0.35"/>
  <line x1="81" y1="161" x2="199" y2="161" stroke="white" stroke-width="1" opacity="0.5"/>
  <line x1="140" y1="66" x2="140" y2="257" stroke="white" stroke-width="1" opacity="0.5"/>
  <text x="106" y="108" text-anchor="middle" font-size="14" fill="white" font-family="Arial" font-weight="bold">1A</text>
  <text x="174" y="108" text-anchor="middle" font-size="14" fill="white" font-family="Arial" font-weight="bold">1B</text>
  <text x="106" y="218" text-anchor="middle" font-size="14" fill="white" font-family="Arial" font-weight="bold">1C</text>
  <text x="174" y="218" text-anchor="middle" font-size="14" fill="white" font-family="Arial" font-weight="bold">1D</text>

  <!-- VELD 6 -->
  <rect x="278" y="120" width="134" height="207" rx="4" fill="#2e7d32" stroke="#fff" stroke-width="2.5"/>
  <rect x="286" y="128" width="118" height="191" fill="none" stroke="white" stroke-width="1" opacity="0.35"/>
  <line x1="286" y1="223" x2="404" y2="223" stroke="white" stroke-width="1" opacity="0.5"/>
  <line x1="345" y1="128" x2="345" y2="319" stroke="white" stroke-width="1" opacity="0.5"/>
  <text x="311" y="170" text-anchor="middle" font-size="14" fill="white" font-family="Arial" font-weight="bold">6A</text>
  <text x="379" y="170" text-anchor="middle" font-size="14" fill="white" font-family="Arial" font-weight="bold">6B</text>
  <text x="311" y="280" text-anchor="middle" font-size="14" fill="white" font-family="Arial" font-weight="bold">6C</text>
  <text x="379" y="280" text-anchor="middle" font-size="14" fill="white" font-family="Arial" font-weight="bold">6D</text>

  <!-- GEBOUWEN -->
  <rect x="83" y="286" width="90" height="38" rx="3" fill="#c8902a" stroke="#8a5a10" stroke-width="2"/>
  <text x="128" y="300" text-anchor="middle" font-size="11" fill="white" font-family="Arial" font-weight="bold">Kantine</text>
  <text x="128" y="315" text-anchor="middle" font-size="9" fill="white" font-family="Arial"></text>

  <rect x="193" y="286" width="76" height="37" rx="3" fill="#5a80a8" stroke="#3a5a80" stroke-width="2"/>
  <text x="231" y="300" text-anchor="middle" font-size="11" fill="white" font-family="Arial" font-weight="bold">Kleed-</text>
  <text x="231" y="315" text-anchor="middle" font-size="11" fill="white" font-family="Arial" font-weight="bold">kamers</text>

  <rect x="217" y="330" width="46" height="22" rx="2" fill="#256625" stroke="#80c080" stroke-width="1.5" stroke-dasharray="4,2"/>
  <text x="240" y="343" text-anchor="middle" font-size="7" fill="white" font-family="Arial" font-weight="bold">Pannakooi</text>

  <!-- VELD 4 & 5 -->
  <rect x="55" y="356" width="134" height="207" rx="4" fill="#2e7d32" stroke="#fff" stroke-width="2.5"/>
  <rect x="63" y="364" width="118" height="191" fill="none" stroke="white" stroke-width="1" opacity="0.35"/>
  <line x1="63" y1="459" x2="181" y2="459" stroke="white" stroke-width="1" opacity="0.5"/>
  <text x="122" y="414" text-anchor="middle" font-size="18" fill="white" font-family="Arial" font-weight="bold">4</text>
  <text x="122" y="517" text-anchor="middle" font-size="18" fill="white" font-family="Arial" font-weight="bold">5</text>

  <!-- VELD 2 -->
  <rect x="206" y="357" width="207" height="134" rx="4" fill="#2e7d32" stroke="#fff" stroke-width="2.5"/>
  <rect x="214" y="365" width="191" height="118" fill="none" stroke="white" stroke-width="1" opacity="0.35"/>
  <line x1="310" y1="365" x2="310" y2="483" stroke="white" stroke-width="1" opacity="0.5"/>
  <text x="258" y="430" text-anchor="middle" font-size="18" fill="white" font-family="Arial" font-weight="bold">2A</text>
  <text x="362" y="430" text-anchor="middle" font-size="18" fill="white" font-family="Arial" font-weight="bold">2B</text>

  <!-- VELD 3 -->
  <rect x="206" y="498" width="207" height="134" rx="4" fill="#2e7d32" stroke="#fff" stroke-width="2.5"/>
  <rect x="214" y="506" width="191" height="118" fill="none" stroke="white" stroke-width="1" opacity="0.35"/>
  <line x1="310" y1="506" x2="310" y2="624" stroke="white" stroke-width="1" opacity="0.5"/>
  <text x="258" y="571" text-anchor="middle" font-size="18" fill="white" font-family="Arial" font-weight="bold">3A</text>
  <text x="362" y="571" text-anchor="middle" font-size="18" fill="white" font-family="Arial" font-weight="bold">3B</text>
</svg>
